<svg xmlns="http://www.w3.org/2000/svg" xmlns:xlink="http://www.w3.org/1999/xlink" viewBox="0,0,256,256" width="100px" height="100px" fill-rule="nonzero"><g fill="#e81212" fill-rule="nonzero" stroke="none" stroke-width="1" stroke-linecap="butt" stroke-linejoin="miter" stroke-miterlimit="10" stroke-dasharray="" stroke-dashoffset="0" font-family="none" font-weight="none" font-size="none" text-anchor="none" style="mix-blend-mode: normal"><g transform="scale(2.56,2.56)"><path d="M29.99023,17.00586c-7.15823,0 -12.98828,5.83005 -12.98828,12.98828v40.01758c0,7.15823 5.83005,12.98828 12.98828,12.98828h40.01953c7.15823,0 12.98828,-5.83005 12.98828,-12.98828v-40.01758c0,-7.15823 -5.83005,-12.98828 -12.98828,-12.98828zM29.99023,19.00586h40.01953c6.07577,0 10.98828,4.91251 10.98828,10.98828v23.69336c-4.67473,-1.09876 -9.54566,-1.6875 -14.55078,-1.6875c-0.56988,0 -1.1334,0.02372 -1.69922,0.03906c0.78646,-2.59382 1.25,-5.25506 1.25,-8.03906c0,-8.18422 -8.00383,-15 -17,-15c-5.63925,0 -9.95289,2.3706 -12.78125,5.67773c-2.82837,3.30714 -4.21875,7.51261 -4.21875,11.32227c0,4.15073 2.32054,8.23407 5.41016,12c0.20254,0.24687 0.41771,0.48821 0.62695,0.73242c-7.06793,3.55113 -13.37797,8.37961 -18.63281,14.1875c-0.25371,-0.92752 -0.40039,-1.89938 -0.40039,-2.9082v-40.01758c0,-6.07577 4.91251,-10.98828 10.98828,-10.98828zM32.83789,21.99805c-5.97754,0 -10.83984,4.86325 -10.83984,10.83984v20.66211c-0.00255,0.18032 0.09219,0.34804 0.24794,0.43894c0.15575,0.0909 0.34838,0.0909 0.50413,0c0.15575,-0.0909 0.25049,-0.25863 0.24794,-0.43894v-20.66211c0,-5.43541 4.40339,-9.83984 9.83984,-9.83984h34.32227c5.43651,0 9.83789,4.40339 9.83789,9.83984v17.66406c-0.00255,0.18032 0.09219,0.34804 0.24794,0.43894c0.15575,0.0909 0.34838,0.0909 0.50413,0c0.15575,-0.0909 0.25049,-0.25863 0.24794,-0.43894v-17.66406c0,-5.97754 -4.8604,-10.83984 -10.83789,-10.83984zM48.99805,31c7.97783,0 15,6.14822 15,13c0,6.76727 -2.99558,12.92171 -6.86133,19.49219c-0.58034,0.98762 -1.41963,2.19275 -2.2832,3.09961c-0.86357,0.90686 -1.76724,1.4082 -2.15625,1.4082c-2.06502,0 -2.26137,-0.41141 -3.58789,-1.5c-3.38287,-2.77462 -7.20916,-6.17776 -10.1543,-9.76758c-2.94513,-3.58982 -4.95703,-7.34816 -4.95703,-10.73242c0,-3.31634 1.2484,-7.11012 3.73828,-10.02148c2.48989,-2.91136 6.17397,-4.97852 11.26172,-4.97852zM49.50195,33.99414c-7.19912,0 -11.49805,5.82505 -11.49805,11.5c0,4.07015 3.13072,8.60153 6.41992,12.19141c1.6446,1.79494 3.33982,3.34682 4.74414,4.45898c0.70216,0.55608 1.32965,1.00086 1.85352,1.31641c0.52387,0.31554 0.87887,0.5332 1.3457,0.5332c0.48011,0 0.75824,-0.27707 1.08789,-0.61133c0.32965,-0.33426 0.68217,-0.78585 1.0625,-1.33984c0.76067,-1.10799 1.62502,-2.6212 2.47461,-4.31836c0.12405,-0.24702 0.02436,-0.54783 -0.22266,-0.67187c-0.24702,-0.12405 -0.54783,-0.02436 -0.67187,0.22266c-0.83441,1.66684 -1.68446,3.15266 -2.4043,4.20117c-0.35992,0.52426 -0.68868,0.93894 -0.94922,1.20313c-0.26054,0.26418 -0.48307,0.31445 -0.37695,0.31445c0.03783,0 -0.36109,-0.10618 -0.83008,-0.38867c-0.46899,-0.28249 -1.07188,-0.7071 -1.75,-1.24414c-1.35624,-1.07408 -3.0198,-2.5975 -4.62695,-4.35156c-3.21429,-3.50812 -6.15625,-7.97777 -6.15625,-11.51562c0,-5.17505 3.83517,-10.5 10.49805,-10.5c5.63229,0 10.5,5.05349 10.5,10.5c0,1.2015 -0.38453,2.94326 -1.00391,4.83789c-0.05549,0.16992 -0.01611,0.35653 0.1033,0.48954c0.11941,0.13301 0.30072,0.1922 0.47561,0.15528c0.17489,-0.03692 0.3168,-0.16435 0.37226,-0.33427c0.63662,-1.94737 1.05273,-3.74193 1.05273,-5.14844c0,-6.03549 -5.27629,-11.5 -11.5,-11.5zM50.04883,39.01367c-2.2359,-0.21526 -4.04687,1.70891 -4.04687,4.14648c0,2.43758 1.71528,4.6086 3.95117,4.82617c2.2359,0.21526 4.04883,-1.70891 4.04883,-4.14648c0,-2.43758 -1.71724,-4.6086 -3.95312,-4.82617zM49.95313,40.00977c1.62811,0.15843 3.04883,1.86765 3.04883,3.83008c0,1.96242 -1.32503,3.30713 -2.95312,3.15039c-1.62811,-0.15843 -3.04687,-1.86765 -3.04687,-3.83008c0,-1.96242 1.32307,-3.30713 2.95117,-3.15039zM58.73242,51.99219c-0.20044,0.00953 -0.37576,0.13795 -0.44531,0.32617c-0.25031,0.65398 -0.5194,1.31486 -0.80078,1.9668c-0.07471,0.16467 -0.05471,0.35684 0.05232,0.50259c0.10703,0.14575 0.2844,0.22236 0.46389,0.20036c0.17948,-0.022 0.3331,-0.13918 0.40176,-0.30646c0.28661,-0.66406 0.56267,-1.33784 0.81836,-2.00586c0.06266,-0.15817 0.04061,-0.33735 -0.05854,-0.4756c-0.09915,-0.13825 -0.26179,-0.21661 -0.4317,-0.20799zM66.44727,53c5.00968,0 9.88056,0.59837 14.55078,1.71484v9.46094c-0.74695,0.45991 -1.47401,0.801 -2.23437,0.82422c-0.00065,0 -0.0013,0 -0.00195,0c-0.11645,0.0037 -0.35184,-0.13515 -0.66992,-0.39258c-0.31808,-0.25743 -0.71286,-0.63225 -1.31641,-0.62891c-1.2285,0.0077 -2.12737,0.93851 -2.95898,1.70898c-0.83161,0.77048 -1.57377,1.36838 -2.23633,1.3125c-0.22884,-0.01914 -0.71412,-0.2402 -1.06445,-0.55078c-0.35033,-0.31058 -0.53099,-0.69106 -0.51953,-0.83008c0.0054,-0.06504 0.0088,-0.06562 0.04492,-0.09961c0.03615,-0.03399 0.12591,-0.08653 0.26758,-0.13086c0.28333,-0.08866 0.74768,-0.13267 1.23438,-0.16992c0.4867,-0.03726 0.99601,-0.06735 1.45703,-0.21289c0.23051,-0.07277 0.45619,-0.17726 0.64844,-0.36133c0.19225,-0.18407 0.32788,-0.46176 0.34766,-0.75195c0.0625,-0.91081 -0.28458,-1.73276 -0.84766,-2.40234c-0.56307,-0.66958 -1.33655,-1.21109 -2.19727,-1.66211c-1.72143,-0.90204 -3.80662,-1.44292 -5.37695,-1.68359c-0.76569,-0.11676 -1.5769,-0.16754 -2.39453,-0.13867c-0.28206,0.00996 -0.56528,0.04273 -0.84766,0.07227c0.79928,-1.66102 1.51941,-3.33289 2.0918,-5.03125c0.67289,-0.02164 1.34478,-0.04687 2.02344,-0.04687zM22.49023,55.99219c-0.27537,0.00431 -0.49542,0.23047 -0.49219,0.50586v4.99219c-0.00255,0.18032 0.09219,0.34804 0.24794,0.43894c0.15575,0.0909 0.34838,0.0909 0.50413,0c0.15575,-0.0909 0.25049,-0.25863 0.24794,-0.43894v-4.99219c0.00158,-0.13498 -0.05147,-0.26487 -0.14711,-0.36014c-0.09564,-0.09527 -0.22573,-0.14782 -0.3607,-0.14572zM63.2168,59.00781c0.75346,-0.02662 1.50177,0.01776 2.20508,0.125c1.47667,0.22632 3.49684,0.75957 5.06641,1.58203c0.78478,0.41123 1.45348,0.89349 1.89453,1.41797c0.44105,0.52448 0.66019,1.06472 0.61719,1.69141c-0.0045,0.06556 -0.0091,0.06527 -0.04297,0.09766c-0.03382,0.03238 -0.11987,0.08474 -0.25977,0.12891c-0.27979,0.08833 -0.74392,0.13268 -1.23047,0.16992c-0.48655,0.03724 -0.99455,0.06817 -1.45703,0.21289c-0.23124,0.07236 -0.45868,0.17533 -0.65234,0.35742c-0.19367,0.18209 -0.33353,0.45589 -0.35742,0.74609c-0.05654,0.68599 0.37114,1.23424 0.85156,1.66016c0.48042,0.42592 1.04837,0.75092 1.64453,0.80078c1.23444,0.10412 2.16186,-0.8016 3,-1.57812c0.83813,-0.77652 1.60966,-1.43715 2.28516,-1.44141c0.11945,-0.00066 0.36123,0.14693 0.68164,0.40625c0.32041,0.25932 0.72353,0.63258 1.33008,0.61328c0.8149,-0.02488 1.53378,-0.30954 2.20508,-0.67383v4.6875c0,6.07577 -4.91251,10.98828 -10.98828,10.98828h-40.01953c-0.89896,0 -1.76764,-0.11933 -2.60352,-0.32227c0.9945,-0.69155 1.89872,-1.50107 2.44336,-2.64258c0,-0.00065 0,-0.0013 0,-0.00195c0.45319,-0.95063 0.20225,-1.94808 0.01172,-2.82227c-0.19053,-0.87418 -0.3222,-1.62299 -0.05469,-2.17383c0.40742,-0.83816 1.16503,-1.44576 2.08203,-2.01172c0.917,-0.56596 1.97488,-1.07344 2.89063,-1.76758c0.78466,-0.59446 1.40118,-1.63879 2.01563,-2.39258c0.30722,-0.37689 0.61029,-0.67008 0.82617,-0.78906c0.21588,-0.11899 0.25762,-0.1323 0.44531,0.00195c0.13989,0.10005 0.16876,0.16157 0.18555,0.28711c0.01678,0.12554 -0.01255,0.33126 -0.10937,0.58984c-0.19366,0.51717 -0.64072,1.2091 -1.11719,1.92383c-0.47647,0.71473 -0.98068,1.45585 -1.28711,2.18945c-0.15321,0.3668 -0.25952,0.73671 -0.26367,1.11719c-0.0042,0.38048 0.11463,0.77832 0.38281,1.09375c0.38053,0.44778 0.90633,0.67727 1.43359,0.73047c0.52726,0.05319 1.06383,-0.04309 1.5957,-0.19727c1.06375,-0.30835 2.13399,-0.86639 2.93945,-1.19336c0.86715,-0.35242 1.38567,-1.16735 1.89063,-1.77344c0.25248,-0.30305 0.49368,-0.55746 0.70313,-0.69727c0.20945,-0.13981 0.34734,-0.17607 0.54688,-0.13086c0.23916,0.05413 0.34716,0.14465 0.4668,0.32227c0.11964,0.17762 0.22062,0.45359 0.31836,0.78125c0.19547,0.65532 0.37451,1.54916 1.15039,2.11914c0.89608,0.65875 2.03263,1.25778 3.2207,1.5625c1.18865,0.30487 2.45404,0.31829 3.52148,-0.29102c0.29427,-0.16772 0.49254,-0.43713 0.58984,-0.69336c0.09731,-0.25623 0.11997,-0.49579 0.14063,-0.70508c0.04132,-0.41858 0.06818,-0.656 0.23242,-0.80078c0.00065,0 0.0013,0 0.00195,0c0.29235,-0.25843 0.72506,-0.3805 1.2832,-0.41016c0.55814,-0.02966 1.21271,0.03701 1.85938,0.08789c0.64667,0.05088 1.28615,0.09417 1.87695,-0.05078c0.59081,-0.14495 1.15271,-0.58122 1.33203,-1.27734c0.16448,-0.63906 -0.07577,-1.25042 -0.4707,-1.64844c-0.39493,-0.39802 -0.90954,-0.66476 -1.43945,-0.92383c-0.70881,-0.34653 -1.41131,-0.69093 -1.90625,-1.06445c0.6771,-0.83878 1.27283,-1.73076 1.73633,-2.51953c1.05197,-1.788 2.04602,-3.56549 2.94922,-5.35156c0.46454,-0.0754 0.93486,-0.12983 1.40625,-0.14648zM38.70898,59.51172c2.84279,3.17988 6.1658,6.10318 9.13086,8.53516c1.27148,1.04341 2.40244,1.95313 4.85742,1.95313c1.44799,0 2.58379,-0.9564 3.60547,-2.0293c0.04863,-0.05106 0.09259,-0.10812 0.14063,-0.16016c0.64346,0.5213 1.46614,0.84417 2.14844,1.17773c0.50484,0.24681 0.93584,0.49652 1.16797,0.73047c0.23213,0.23395 0.29886,0.36887 0.21484,0.69531c-0.09618,0.37337 -0.23876,0.4652 -0.60352,0.55469c-0.36476,0.08949 -0.93297,0.07281 -1.56055,0.02344c-0.62758,-0.04937 -1.31681,-0.12367 -1.99023,-0.08789c-0.67342,0.03578 -1.35743,0.18514 -1.89258,0.6582c-0.50276,0.44321 -0.52943,1.05675 -0.56836,1.45117c-0.01947,0.19721 -0.04423,0.35482 -0.08008,0.44922c-0.03585,0.0944 -0.05671,0.12936 -0.14844,0.18164c-0.76155,0.4347 -1.7475,0.45359 -2.77734,0.18945c-1.02985,-0.26413 -2.07819,-0.80958 -2.87891,-1.39844c-0.41112,-0.30202 -0.57442,-0.89968 -0.7832,-1.59961c-0.10439,-0.34996 -0.2222,-0.71765 -0.44922,-1.05469c-0.22702,-0.33704 -0.59537,-0.63186 -1.07422,-0.74023c-0.48897,-0.11079 -0.96215,0.03501 -1.32227,0.27539c-0.36012,0.24038 -0.6462,0.56247 -0.91797,0.88867c-0.54354,0.65241 -1.05619,1.3087 -1.49805,1.48828c-0.87954,0.35704 -1.92105,0.89131 -2.8418,1.1582c-0.46038,0.13345 -0.8845,0.19563 -1.2168,0.16211c-0.3323,-0.03352 -0.56351,-0.13613 -0.77148,-0.38086c-0.10782,-0.12682 -0.14662,-0.24633 -0.14453,-0.4375c0.0021,-0.19116 0.06489,-0.44669 0.1875,-0.74023c0.24523,-0.58709 0.71766,-1.30497 1.19531,-2.02148c0.47766,-0.71652 0.96091,-1.42794 1.22266,-2.12695c0.13088,-0.34951 0.21127,-0.70649 0.16211,-1.07422c-0.04916,-0.36773 -0.26139,-0.73105 -0.59375,-0.96875c-0.46681,-0.33379 -1.07589,-0.3036 -1.50977,-0.06445c-0.43387,0.23914 -0.78036,0.61955 -1.11914,1.03516c-0.67756,0.83122 -1.34541,1.84902 -1.84375,2.22656c-0.80326,0.60887 -1.835,1.1096 -2.8125,1.71289c-0.9775,0.60329 -1.91949,1.32394 -2.45508,2.42578c-0.46048,0.94816 -0.21416,1.94915 -0.02344,2.82422c0.19072,0.87507 0.32435,1.62632 0.06055,2.17969c-0.54053,1.1329 -1.57715,1.94192 -2.77344,2.69531c-2.92558,-1.0902 -5.254,-3.38363 -6.38867,-6.28711c5.30193,-5.96741 11.72693,-10.90967 18.94531,-14.5zM22.49023,63.00586c-0.27537,0.00431 -0.49542,0.23047 -0.49219,0.50586v2.98828c-0.00255,0.18032 0.09219,0.34804 0.24794,0.43894c0.15575,0.0909 0.34838,0.0909 0.50413,0c0.15575,-0.0909 0.25049,-0.25863 0.24794,-0.43894v-2.98828c0.00158,-0.13498 -0.05147,-0.26487 -0.14711,-0.36014c-0.09564,-0.09527 -0.22573,-0.14782 -0.3607,-0.14572z"></path></g></g></svg>